<svg width="240" height="7" viewBox="0 0 240 7" fill="none" xmlns="http://www.w3.org/2000/svg">
<path d="M-5.86138e-05 6.62939C0.16007 4.61178 0.720518 3.01049 1.68129 1.82555C2.64206 0.608572 3.97112 8.57463e-05 5.66848 8.57463e-05C6.46912 8.57463e-05 7.25375 0.160214 8.02236 0.48047C8.79098 0.800726 9.52757 1.15301 10.2321 1.53732C10.9687 1.92162 11.6573 2.2739 12.2978 2.59416C12.9703 2.88239 13.5788 3.02651 14.1232 3.02651C14.8598 3.02651 15.4683 2.7703 15.9487 2.25789C16.4291 1.71346 16.7333 0.976866 16.8614 0.0481236H20.128C19.9999 1.96966 19.4555 3.55493 18.4947 4.80393C17.534 6.0209 16.1889 6.62939 14.4595 6.62939C13.6589 6.62939 12.8742 6.46926 12.1056 6.149C11.337 5.82875 10.5844 5.47647 9.84782 5.09216C9.14326 4.70785 8.47072 4.37158 7.83021 4.08335C7.1897 3.7631 6.59722 3.60297 6.05279 3.60297C5.3162 3.60297 4.70771 3.87519 4.22732 4.41962C3.77897 4.93203 3.47472 5.66862 3.31459 6.62939H-5.86138e-05ZM13.7078 6.62939C13.8679 4.61178 14.4284 3.01049 15.3891 1.82555C16.3499 0.608572 17.679 8.57463e-05 19.3763 8.57463e-05C20.177 8.57463e-05 20.9616 0.160214 21.7302 0.48047C22.4988 0.800726 23.2354 1.15301 23.94 1.53732C24.6766 1.92162 25.3651 2.2739 26.0056 2.59416C26.6782 2.88239 27.2867 3.02651 27.8311 3.02651C28.5677 3.02651 29.1762 2.7703 29.6565 2.25789C30.1369 1.71346 30.4412 0.976866 30.5693 0.0481236H33.8359C33.7078 1.96966 33.1634 3.55493 32.2026 4.80393C31.2418 6.0209 29.8967 6.62939 28.1674 6.62939C27.3667 6.62939 26.5821 6.46926 25.8135 6.149C25.0449 5.82875 24.2923 5.47647 23.5557 5.09216C22.8511 4.70785 22.1786 4.37158 21.5381 4.08335C20.8975 3.7631 20.3051 3.60297 19.7606 3.60297C19.024 3.60297 18.4156 3.87519 17.9352 4.41962C17.4868 4.93203 17.1826 5.66862 17.0224 6.62939H13.7078ZM27.4156 6.62939C27.5758 4.61178 28.1362 3.01049 29.097 1.82555C30.0577 0.608572 31.3868 8.57463e-05 33.0842 8.57463e-05C33.8848 8.57463e-05 34.6694 0.160214 35.438 0.48047C36.2067 0.800726 36.9433 1.15301 37.6478 1.53732C38.3844 1.92162 39.073 2.2739 39.7135 2.59416C40.386 2.88239 40.9945 3.02651 41.5389 3.02651C42.2755 3.02651 42.884 2.7703 43.3644 2.25789C43.8448 1.71346 44.149 0.976866 44.2771 0.0481236H47.5437C47.4156 1.96966 46.8712 3.55493 45.9104 4.80393C44.9497 6.0209 43.6046 6.62939 41.8752 6.62939C41.0746 6.62939 40.2899 6.46926 39.5213 6.149C38.7527 5.82875 38.0001 5.47647 37.2635 5.09216C36.5589 4.70785 35.8864 4.37158 35.2459 4.08335C34.6054 3.7631 34.0129 3.60297 33.4685 3.60297C32.7319 3.60297 32.1234 3.87519 31.643 4.41962C31.1947 4.93203 30.8904 5.66862 30.7303 6.62939H27.4156ZM41.1235 6.62939C41.2836 4.61178 41.844 3.01049 42.8048 1.82555C43.7656 0.608572 45.0946 8.57463e-05 46.792 8.57463e-05C47.5926 8.57463e-05 48.3773 0.160214 49.1459 0.48047C49.9145 0.800726 50.6511 1.15301 51.3557 1.53732C52.0922 1.92162 52.7808 2.2739 53.4213 2.59416C54.0938 2.88239 54.7023 3.02651 55.2468 3.02651C55.9834 3.02651 56.5918 2.7703 57.0722 2.25789C57.5526 1.71346 57.8569 0.976866 57.985 0.0481236H61.2516C61.1235 1.96966 60.579 3.55493 59.6183 4.80393C58.6575 6.0209 57.3124 6.62939 55.583 6.62939C54.7824 6.62939 53.9978 6.46926 53.2292 6.149C52.4605 5.82875 51.7079 5.47647 50.9713 5.09216C50.2668 4.70785 49.5942 4.37158 48.9537 4.08335C48.3132 3.7631 47.7207 3.60297 47.1763 3.60297C46.4397 3.60297 45.8312 3.87519 45.3509 4.41962C44.9025 4.93203 44.5982 5.66862 44.4381 6.62939H41.1235ZM54.8313 6.62939C54.9914 4.61178 55.5519 3.01049 56.5127 1.82555C57.4734 0.608572 58.8025 8.57463e-05 60.4999 8.57463e-05C61.3005 8.57463e-05 62.0851 0.160214 62.8537 0.48047C63.6224 0.800726 64.3589 1.15301 65.0635 1.53732C65.8001 1.92162 66.4886 2.2739 67.1292 2.59416C67.8017 2.88239 68.4102 3.02651 68.9546 3.02651C69.6912 3.02651 70.2997 2.7703 70.7801 2.25789C71.2605 1.71346 71.5647 0.976866 71.6928 0.0481236H74.9594C74.8313 1.96966 74.2869 3.55493 73.3261 4.80393C72.3653 6.0209 71.0203 6.62939 69.2909 6.62939C68.4902 6.62939 67.7056 6.46926 66.937 6.149C66.1684 5.82875 65.4158 5.47647 64.6792 5.09216C63.9746 4.70785 63.3021 4.37158 62.6616 4.08335C62.0211 3.7631 61.4286 3.60297 60.8842 3.60297C60.1476 3.60297 59.5391 3.87519 59.0587 4.41962C58.6103 4.93203 58.3061 5.66862 58.146 6.62939H54.8313ZM68.5392 6.62939C68.6993 4.61178 69.2597 3.01049 70.2205 1.82555C71.1813 0.608572 72.5103 8.57463e-05 74.2077 8.57463e-05C75.0083 8.57463e-05 75.793 0.160214 76.5616 0.48047C77.3302 0.800726 78.0668 1.15301 78.7714 1.53732C79.5079 1.92162 80.1965 2.2739 80.837 2.59416C81.5095 2.88239 82.118 3.02651 82.6625 3.02651C83.3991 3.02651 84.0075 2.7703 84.4879 2.25789C84.9683 1.71346 85.2726 0.976866 85.4007 0.0481236H88.6673C88.5392 1.96966 87.9947 3.55493 87.034 4.80393C86.0732 6.0209 84.7281 6.62939 82.9987 6.62939C82.1981 6.62939 81.4135 6.46926 80.6449 6.149C79.8762 5.82875 79.1236 5.47647 78.387 5.09216C77.6825 4.70785 77.0099 4.37158 76.3694 4.08335C75.7289 3.7631 75.1364 3.60297 74.592 3.60297C73.8554 3.60297 73.2469 3.87519 72.7665 4.41962C72.3182 4.93203 72.0139 5.66862 71.8538 6.62939H68.5392ZM82.247 6.62939C82.4071 4.61178 82.9676 3.01049 83.9283 1.82555C84.8891 0.608572 86.2182 8.57463e-05 87.9155 8.57463e-05C88.7162 8.57463e-05 89.5008 0.160214 90.2694 0.48047C91.038 0.800726 91.7746 1.15301 92.4792 1.53732C93.2158 1.92162 93.9043 2.2739 94.5448 2.59416C95.2174 2.88239 95.8259 3.02651 96.3703 3.02651C97.1069 3.02651 97.7154 2.7703 98.1958 2.25789C98.6761 1.71346 98.9804 0.976866 99.1085 0.0481236H102.375C102.247 1.96966 101.703 3.55493 100.742 4.80393C99.781 6.0209 98.436 6.62939 96.7066 6.62939C95.9059 6.62939 95.1213 6.46926 94.3527 6.149C93.5841 5.82875 92.8315 5.47647 92.0949 5.09216C91.3903 4.70785 90.7178 4.37158 90.0773 4.08335C89.4368 3.7631 88.8443 3.60297 88.2998 3.60297C87.5633 3.60297 86.9548 3.87519 86.4744 4.41962C86.026 4.93203 85.7218 5.66862 85.5616 6.62939H82.247ZM95.9548 6.62939C96.115 4.61178 96.6754 3.01049 97.6362 1.82555C98.597 0.608572 99.926 8.57463e-05 101.623 8.57463e-05C102.424 8.57463e-05 103.209 0.160214 103.977 0.48047C104.746 0.800726 105.482 1.15301 106.187 1.53732C106.924 1.92162 107.612 2.2739 108.253 2.59416C108.925 2.88239 109.534 3.02651 110.078 3.02651C110.815 3.02651 111.423 2.7703 111.904 2.25789C112.384 1.71346 112.688 0.976866 112.816 0.0481236H116.083C115.955 1.96966 115.41 3.55493 114.45 4.80393C113.489 6.0209 112.144 6.62939 110.414 6.62939C109.614 6.62939 108.829 6.46926 108.061 6.149C107.292 5.82875 106.539 5.47647 105.803 5.09216C105.098 4.70785 104.426 4.37158 103.785 4.08335C103.145 3.7631 102.552 3.60297 102.008 3.60297C101.271 3.60297 100.663 3.87519 100.182 4.41962C99.7339 4.93203 99.4296 5.66862 99.2695 6.62939H95.9548ZM109.663 6.62939C109.823 4.61178 110.383 3.01049 111.344 1.82555C112.305 0.608572 113.634 8.57463e-05 115.331 8.57463e-05C116.132 8.57463e-05 116.916 0.160214 117.685 0.48047C118.454 0.800726 119.19 1.15301 119.895 1.53732C120.631 1.92162 121.32 2.2739 121.961 2.59416C122.633 2.88239 123.242 3.02651 123.786 3.02651C124.523 3.02651 125.131 2.7703 125.611 2.25789C126.092 1.71346 126.396 0.976866 126.524 0.0481236H129.791C129.663 1.96966 129.118 3.55493 128.157 4.80393C127.197 6.0209 125.852 6.62939 124.122 6.62939C123.322 6.62939 122.537 6.46926 121.768 6.149C121 5.82875 120.247 5.47647 119.511 5.09216C118.806 4.70785 118.133 4.37158 117.493 4.08335C116.852 3.7631 116.26 3.60297 115.716 3.60297C114.979 3.60297 114.37 3.87519 113.89 4.41962C113.442 4.93203 113.137 5.66862 112.977 6.62939H109.663ZM123.371 6.62939C123.531 4.61178 124.091 3.01049 125.052 1.82555C126.013 0.608572 127.342 8.57463e-05 129.039 8.57463e-05C129.84 8.57463e-05 130.624 0.160214 131.393 0.48047C132.162 0.800726 132.898 1.15301 133.603 1.53732C134.339 1.92162 135.028 2.2739 135.668 2.59416C136.341 2.88239 136.949 3.02651 137.494 3.02651C138.23 3.02651 138.839 2.7703 139.319 2.25789C139.8 1.71346 140.104 0.976866 140.232 0.0481236H143.499C143.371 1.96966 142.826 3.55493 141.865 4.80393C140.905 6.0209 139.559 6.62939 137.83 6.62939C137.029 6.62939 136.245 6.46926 135.476 6.149C134.708 5.82875 133.955 5.47647 133.218 5.09216C132.514 4.70785 131.841 4.37158 131.201 4.08335C130.56 3.7631 129.968 3.60297 129.423 3.60297C128.687 3.60297 128.078 3.87519 127.598 4.41962C127.15 4.93203 126.845 5.66862 126.685 6.62939H123.371ZM137.078 6.62939C137.239 4.61178 137.799 3.01049 138.76 1.82555C139.721 0.608572 141.05 8.57463e-05 142.747 8.57463e-05C143.548 8.57463e-05 144.332 0.160214 145.101 0.48047C145.869 0.800726 146.606 1.15301 147.311 1.53732C148.047 1.92162 148.736 2.2739 149.376 2.59416C150.049 2.88239 150.657 3.02651 151.202 3.02651C151.938 3.02651 152.547 2.7703 153.027 2.25789C153.508 1.71346 153.812 0.976866 153.94 0.0481236H157.206C157.078 1.96966 156.534 3.55493 155.573 4.80393C154.612 6.0209 153.267 6.62939 151.538 6.62939C150.737 6.62939 149.953 6.46926 149.184 6.149C148.415 5.82875 147.663 5.47647 146.926 5.09216C146.222 4.70785 145.549 4.37158 144.909 4.08335C144.268 3.7631 143.676 3.60297 143.131 3.60297C142.395 3.60297 141.786 3.87519 141.306 4.41962C140.857 4.93203 140.553 5.66862 140.393 6.62939H137.078ZM150.786 6.62939C150.946 4.61178 151.507 3.01049 152.468 1.82555C153.428 0.608572 154.757 8.57463e-05 156.455 8.57463e-05C157.255 8.57463e-05 158.04 0.160214 158.809 0.48047C159.577 0.800726 160.314 1.15301 161.018 1.53732C161.755 1.92162 162.444 2.2739 163.084 2.59416C163.757 2.88239 164.365 3.02651 164.91 3.02651C165.646 3.02651 166.255 2.7703 166.735 2.25789C167.215 1.71346 167.52 0.976866 167.648 0.0481236H170.914C170.786 1.96966 170.242 3.55493 169.281 4.80393C168.32 6.0209 166.975 6.62939 165.246 6.62939C164.445 6.62939 163.661 6.46926 162.892 6.149C162.123 5.82875 161.371 5.47647 160.634 5.09216C159.93 4.70785 159.257 4.37158 158.616 4.08335C157.976 3.7631 157.384 3.60297 156.839 3.60297C156.102 3.60297 155.494 3.87519 155.014 4.41962C154.565 4.93203 154.261 5.66862 154.101 6.62939H150.786ZM164.494 6.62939C164.654 4.61178 165.215 3.01049 166.175 1.82555C167.136 0.608572 168.465 8.57463e-05 170.163 8.57463e-05C170.963 8.57463e-05 171.748 0.160214 172.516 0.48047C173.285 0.800726 174.022 1.15301 174.726 1.53732C175.463 1.92162 176.151 2.2739 176.792 2.59416C177.464 2.88239 178.073 3.02651 178.617 3.02651C179.354 3.02651 179.962 2.7703 180.443 2.25789C180.923 1.71346 181.227 0.976866 181.356 0.0481236H184.622C184.494 1.96966 183.95 3.55493 182.989 4.80393C182.028 6.0209 180.683 6.62939 178.954 6.62939C178.153 6.62939 177.368 6.46926 176.6 6.149C175.831 5.82875 175.079 5.47647 174.342 5.09216C173.637 4.70785 172.965 4.37158 172.324 4.08335C171.684 3.7631 171.091 3.60297 170.547 3.60297C169.81 3.60297 169.202 3.87519 168.721 4.41962C168.273 4.93203 167.969 5.66862 167.809 6.62939H164.494ZM178.202 6.62939C178.362 4.61178 178.922 3.01049 179.883 1.82555C180.844 0.608572 182.173 8.57463e-05 183.87 8.57463e-05C184.671 8.57463e-05 185.456 0.160214 186.224 0.48047C186.993 0.800726 187.73 1.15301 188.434 1.53732C189.171 1.92162 189.859 2.2739 190.5 2.59416C191.172 2.88239 191.781 3.02651 192.325 3.02651C193.062 3.02651 193.67 2.7703 194.151 2.25789C194.631 1.71346 194.935 0.976866 195.063 0.0481236H198.33C198.202 1.96966 197.657 3.55493 196.697 4.80393C195.736 6.0209 194.391 6.62939 192.661 6.62939C191.861 6.62939 191.076 6.46926 190.308 6.149C189.539 5.82875 188.786 5.47647 188.05 5.09216C187.345 4.70785 186.673 4.37158 186.032 4.08335C185.392 3.7631 184.799 3.60297 184.255 3.60297C183.518 3.60297 182.91 3.87519 182.429 4.41962C181.981 4.93203 181.677 5.66862 181.517 6.62939H178.202ZM191.91 6.62939C192.07 4.61178 192.63 3.01049 193.591 1.82555C194.552 0.608572 195.881 8.57463e-05 197.578 8.57463e-05C198.379 8.57463e-05 199.164 0.160214 199.932 0.48047C200.701 0.800726 201.437 1.15301 202.142 1.53732C202.879 1.92162 203.567 2.2739 204.208 2.59416C204.88 2.88239 205.489 3.02651 206.033 3.02651C206.77 3.02651 207.378 2.7703 207.859 2.25789C208.339 1.71346 208.643 0.976866 208.771 0.0481236H212.038C211.91 1.96966 211.365 3.55493 210.405 4.80393C209.444 6.0209 208.099 6.62939 206.369 6.62939C205.569 6.62939 204.784 6.46926 204.015 6.149C203.247 5.82875 202.494 5.47647 201.758 5.09216C201.053 4.70785 200.381 4.37158 199.74 4.08335C199.1 3.7631 198.507 3.60297 197.963 3.60297C197.226 3.60297 196.618 3.87519 196.137 4.41962C195.689 4.93203 195.385 5.66862 195.224 6.62939H191.91ZM205.618 6.62939C205.778 4.61178 206.338 3.01049 207.299 1.82555C208.26 0.608572 209.589 8.57463e-05 211.286 8.57463e-05C212.087 8.57463e-05 212.871 0.160214 213.64 0.48047C214.409 0.800726 215.145 1.15301 215.85 1.53732C216.586 1.92162 217.275 2.2739 217.915 2.59416C218.588 2.88239 219.196 3.02651 219.741 3.02651C220.477 3.02651 221.086 2.7703 221.566 2.25789C222.047 1.71346 222.351 0.976866 222.479 0.0481236H225.746C225.618 1.96966 225.073 3.55493 224.112 4.80393C223.152 6.0209 221.807 6.62939 220.077 6.62939C219.277 6.62939 218.492 6.46926 217.723 6.149C216.955 5.82875 216.202 5.47647 215.465 5.09216C214.761 4.70785 214.088 4.37158 213.448 4.08335C212.807 3.7631 212.215 3.60297 211.67 3.60297C210.934 3.60297 210.325 3.87519 209.845 4.41962C209.397 4.93203 209.092 5.66862 208.932 6.62939H205.618ZM219.325 6.62939C219.486 4.61178 220.046 3.01049 221.007 1.82555C221.968 0.608572 223.297 8.57463e-05 224.994 8.57463e-05C225.795 8.57463e-05 226.579 0.160214 227.348 0.48047C228.116 0.800726 228.853 1.15301 229.558 1.53732C230.294 1.92162 230.983 2.2739 231.623 2.59416C232.296 2.88239 232.904 3.02651 233.449 3.02651C234.185 3.02651 234.794 2.7703 235.274 2.25789C235.755 1.71346 236.059 0.976866 236.187 0.0481236H239.454C239.325 1.96966 238.781 3.55493 237.82 4.80393C236.859 6.0209 235.514 6.62939 233.785 6.62939C232.984 6.62939 232.2 6.46926 231.431 6.149C230.663 5.82875 229.91 5.47647 229.173 5.09216C228.469 4.70785 227.796 4.37158 227.156 4.08335C226.515 3.7631 225.923 3.60297 225.378 3.60297C224.642 3.60297 224.033 3.87519 223.553 4.41962C223.104 4.93203 222.8 5.66862 222.64 6.62939H219.325Z" fill="url(#paint0_linear_506_379)"/>
<defs>
<linearGradient id="paint0_linear_506_379" x1="-11.1224" y1="-15.1254" x2="260.286" y2="7.28071" gradientUnits="userSpaceOnUse">
<stop stop-color="#C6F1F7"/>
<stop offset="0.364583" stop-color="#F983E9"/>
<stop offset="0.739583" stop-color="#B877FF"/>
<stop offset="1" stop-color="#C2E9CD"/>
</linearGradient>
</defs>
</svg>
