<svg width="199" height="7" viewBox="0 0 199 7" fill="none" xmlns="http://www.w3.org/2000/svg">
<path d="M1.56164e-05 6.62403C0.160016 4.60803 0.720016 3.00803 1.68002 1.82403C2.64002 0.608027 3.96802 2.67029e-05 5.66402 2.67029e-05C6.46402 2.67029e-05 7.24802 0.160027 8.01602 0.480026C8.78402 0.800026 9.52002 1.15203 10.224 1.53603C10.96 1.92003 11.648 2.27203 12.288 2.59202C12.96 2.88002 13.568 3.02402 14.112 3.02402C14.848 3.02402 15.456 2.76803 15.936 2.25603C16.416 1.71203 16.72 0.976026 16.848 0.0480261H20.112C19.984 1.96803 19.44 3.55203 18.48 4.80002C17.52 6.01603 16.176 6.62403 14.448 6.62403C13.648 6.62403 12.864 6.46403 12.096 6.14402C11.328 5.82403 10.576 5.47203 9.84002 5.08803C9.13602 4.70403 8.46402 4.36803 7.82402 4.08003C7.18402 3.76003 6.59202 3.60003 6.04802 3.60003C5.31202 3.60003 4.70402 3.87203 4.22402 4.41603C3.77602 4.92803 3.47202 5.66403 3.31202 6.62403H1.56164e-05ZM13.6969 6.62403C13.8569 4.60803 14.4169 3.00803 15.3769 1.82403C16.3369 0.608027 17.6649 2.67029e-05 19.3609 2.67029e-05C20.1609 2.67029e-05 20.9449 0.160027 21.7129 0.480026C22.4809 0.800026 23.2169 1.15203 23.9209 1.53603C24.6569 1.92003 25.3449 2.27203 25.9849 2.59202C26.6569 2.88002 27.2649 3.02402 27.8089 3.02402C28.5449 3.02402 29.1529 2.76803 29.6329 2.25603C30.1129 1.71203 30.4169 0.976026 30.5449 0.0480261H33.8089C33.6809 1.96803 33.1369 3.55203 32.1769 4.80002C31.2169 6.01603 29.8729 6.62403 28.1449 6.62403C27.3449 6.62403 26.5609 6.46403 25.7929 6.14402C25.0249 5.82403 24.2729 5.47203 23.5369 5.08803C22.8329 4.70403 22.1609 4.36803 21.5209 4.08003C20.8809 3.76003 20.2889 3.60003 19.7449 3.60003C19.0089 3.60003 18.4009 3.87203 17.9209 4.41603C17.4729 4.92803 17.1689 5.66403 17.0089 6.62403H13.6969ZM27.3938 6.62403C27.5538 4.60803 28.1138 3.00803 29.0738 1.82403C30.0338 0.608027 31.3618 2.67029e-05 33.0578 2.67029e-05C33.8578 2.67029e-05 34.6418 0.160027 35.4098 0.480026C36.1778 0.800026 36.9138 1.15203 37.6178 1.53603C38.3538 1.92003 39.0418 2.27203 39.6818 2.59202C40.3538 2.88002 40.9618 3.02402 41.5058 3.02402C42.2418 3.02402 42.8498 2.76803 43.3298 2.25603C43.8098 1.71203 44.1138 0.976026 44.2418 0.0480261H47.5058C47.3778 1.96803 46.8338 3.55203 45.8738 4.80002C44.9138 6.01603 43.5698 6.62403 41.8418 6.62403C41.0418 6.62403 40.2578 6.46403 39.4898 6.14402C38.7218 5.82403 37.9698 5.47203 37.2338 5.08803C36.5298 4.70403 35.8578 4.36803 35.2178 4.08003C34.5778 3.76003 33.9858 3.60003 33.4418 3.60003C32.7058 3.60003 32.0978 3.87203 31.6178 4.41603C31.1698 4.92803 30.8658 5.66403 30.7058 6.62403H27.3938ZM41.0906 6.62403C41.2506 4.60803 41.8106 3.00803 42.7706 1.82403C43.7306 0.608027 45.0586 2.67029e-05 46.7546 2.67029e-05C47.5546 2.67029e-05 48.3386 0.160027 49.1066 0.480026C49.8746 0.800026 50.6106 1.15203 51.3146 1.53603C52.0506 1.92003 52.7386 2.27203 53.3786 2.59202C54.0506 2.88002 54.6586 3.02402 55.2026 3.02402C55.9386 3.02402 56.5466 2.76803 57.0266 2.25603C57.5066 1.71203 57.8106 0.976026 57.9386 0.0480261H61.2026C61.0746 1.96803 60.5306 3.55203 59.5706 4.80002C58.6106 6.01603 57.2666 6.62403 55.5386 6.62403C54.7386 6.62403 53.9546 6.46403 53.1866 6.14402C52.4186 5.82403 51.6666 5.47203 50.9306 5.08803C50.2266 4.70403 49.5546 4.36803 48.9146 4.08003C48.2746 3.76003 47.6826 3.60003 47.1386 3.60003C46.4026 3.60003 45.7946 3.87203 45.3146 4.41603C44.8666 4.92803 44.5626 5.66403 44.4026 6.62403H41.0906ZM54.7875 6.62403C54.9475 4.60803 55.5075 3.00803 56.4675 1.82403C57.4275 0.608027 58.7555 2.67029e-05 60.4515 2.67029e-05C61.2515 2.67029e-05 62.0355 0.160027 62.8035 0.480026C63.5715 0.800026 64.3075 1.15203 65.0115 1.53603C65.7475 1.92003 66.4355 2.27203 67.0755 2.59202C67.7475 2.88002 68.3555 3.02402 68.8995 3.02402C69.6355 3.02402 70.2435 2.76803 70.7235 2.25603C71.2035 1.71203 71.5075 0.976026 71.6355 0.0480261H74.8995C74.7715 1.96803 74.2275 3.55203 73.2675 4.80002C72.3075 6.01603 70.9635 6.62403 69.2355 6.62403C68.4355 6.62403 67.6515 6.46403 66.8835 6.14402C66.1155 5.82403 65.3635 5.47203 64.6275 5.08803C63.9235 4.70403 63.2515 4.36803 62.6115 4.08003C61.9715 3.76003 61.3795 3.60003 60.8355 3.60003C60.0995 3.60003 59.4915 3.87203 59.0115 4.41603C58.5635 4.92803 58.2595 5.66403 58.0995 6.62403H54.7875ZM68.4844 6.62403C68.6444 4.60803 69.2044 3.00803 70.1644 1.82403C71.1244 0.608027 72.4524 2.67029e-05 74.1484 2.67029e-05C74.9484 2.67029e-05 75.7324 0.160027 76.5004 0.480026C77.2684 0.800026 78.0044 1.15203 78.7084 1.53603C79.4444 1.92003 80.1324 2.27203 80.7724 2.59202C81.4444 2.88002 82.0524 3.02402 82.5964 3.02402C83.3324 3.02402 83.9404 2.76803 84.4204 2.25603C84.9004 1.71203 85.2044 0.976026 85.3324 0.0480261H88.5964C88.4684 1.96803 87.9244 3.55203 86.9644 4.80002C86.0044 6.01603 84.6604 6.62403 82.9324 6.62403C82.1324 6.62403 81.3484 6.46403 80.5804 6.14402C79.8124 5.82403 79.0604 5.47203 78.3244 5.08803C77.6204 4.70403 76.9484 4.36803 76.3084 4.08003C75.6684 3.76003 75.0764 3.60003 74.5324 3.60003C73.7964 3.60003 73.1884 3.87203 72.7084 4.41603C72.2604 4.92803 71.9564 5.66403 71.7964 6.62403H68.4844ZM82.1813 6.62403C82.3413 4.60803 82.9013 3.00803 83.8613 1.82403C84.8213 0.608027 86.1493 2.67029e-05 87.8453 2.67029e-05C88.6453 2.67029e-05 89.4293 0.160027 90.1973 0.480026C90.9653 0.800026 91.7013 1.15203 92.4053 1.53603C93.1413 1.92003 93.8293 2.27203 94.4693 2.59202C95.1413 2.88002 95.7493 3.02402 96.2933 3.02402C97.0293 3.02402 97.6373 2.76803 98.1173 2.25603C98.5973 1.71203 98.9013 0.976026 99.0293 0.0480261H102.293C102.165 1.96803 101.621 3.55203 100.661 4.80002C99.7013 6.01603 98.3573 6.62403 96.6293 6.62403C95.8293 6.62403 95.0453 6.46403 94.2773 6.14402C93.5093 5.82403 92.7573 5.47203 92.0213 5.08803C91.3173 4.70403 90.6453 4.36803 90.0053 4.08003C89.3653 3.76003 88.7733 3.60003 88.2293 3.60003C87.4933 3.60003 86.8853 3.87203 86.4053 4.41603C85.9573 4.92803 85.6533 5.66403 85.4933 6.62403H82.1813ZM95.8781 6.62403C96.0381 4.60803 96.5981 3.00803 97.5581 1.82403C98.5181 0.608027 99.8461 2.67029e-05 101.542 2.67029e-05C102.342 2.67029e-05 103.126 0.160027 103.894 0.480026C104.662 0.800026 105.398 1.15203 106.102 1.53603C106.838 1.92003 107.526 2.27203 108.166 2.59202C108.838 2.88002 109.446 3.02402 109.99 3.02402C110.726 3.02402 111.334 2.76803 111.814 2.25603C112.294 1.71203 112.598 0.976026 112.726 0.0480261H115.99C115.862 1.96803 115.318 3.55203 114.358 4.80002C113.398 6.01603 112.054 6.62403 110.326 6.62403C109.526 6.62403 108.742 6.46403 107.974 6.14402C107.206 5.82403 106.454 5.47203 105.718 5.08803C105.014 4.70403 104.342 4.36803 103.702 4.08003C103.062 3.76003 102.47 3.60003 101.926 3.60003C101.19 3.60003 100.582 3.87203 100.102 4.41603C99.6541 4.92803 99.3501 5.66403 99.1901 6.62403H95.8781ZM109.575 6.62403C109.735 4.60803 110.295 3.00803 111.255 1.82403C112.215 0.608027 113.543 2.67029e-05 115.239 2.67029e-05C116.039 2.67029e-05 116.823 0.160027 117.591 0.480026C118.359 0.800026 119.095 1.15203 119.799 1.53603C120.535 1.92003 121.223 2.27203 121.863 2.59202C122.535 2.88002 123.143 3.02402 123.687 3.02402C124.423 3.02402 125.031 2.76803 125.511 2.25603C125.991 1.71203 126.295 0.976026 126.423 0.0480261H129.687C129.559 1.96803 129.015 3.55203 128.055 4.80002C127.095 6.01603 125.751 6.62403 124.023 6.62403C123.223 6.62403 122.439 6.46403 121.671 6.14402C120.903 5.82403 120.151 5.47203 119.415 5.08803C118.711 4.70403 118.039 4.36803 117.399 4.08003C116.759 3.76003 116.167 3.60003 115.623 3.60003C114.887 3.60003 114.279 3.87203 113.799 4.41603C113.351 4.92803 113.047 5.66403 112.887 6.62403H109.575ZM123.272 6.62403C123.432 4.60803 123.992 3.00803 124.952 1.82403C125.912 0.608027 127.24 2.67029e-05 128.936 2.67029e-05C129.736 2.67029e-05 130.52 0.160027 131.288 0.480026C132.056 0.800026 132.792 1.15203 133.496 1.53603C134.232 1.92003 134.92 2.27203 135.56 2.59202C136.232 2.88002 136.84 3.02402 137.384 3.02402C138.12 3.02402 138.728 2.76803 139.208 2.25603C139.688 1.71203 139.992 0.976026 140.12 0.0480261H143.384C143.256 1.96803 142.712 3.55203 141.752 4.80002C140.792 6.01603 139.448 6.62403 137.72 6.62403C136.92 6.62403 136.136 6.46403 135.368 6.14402C134.6 5.82403 133.848 5.47203 133.112 5.08803C132.408 4.70403 131.736 4.36803 131.096 4.08003C130.456 3.76003 129.864 3.60003 129.32 3.60003C128.584 3.60003 127.976 3.87203 127.496 4.41603C127.048 4.92803 126.744 5.66403 126.584 6.62403H123.272ZM136.969 6.62403C137.129 4.60803 137.689 3.00803 138.649 1.82403C139.609 0.608027 140.937 2.67029e-05 142.633 2.67029e-05C143.433 2.67029e-05 144.217 0.160027 144.985 0.480026C145.753 0.800026 146.489 1.15203 147.193 1.53603C147.929 1.92003 148.617 2.27203 149.257 2.59202C149.929 2.88002 150.537 3.02402 151.081 3.02402C151.817 3.02402 152.425 2.76803 152.905 2.25603C153.385 1.71203 153.689 0.976026 153.817 0.0480261H157.081C156.953 1.96803 156.409 3.55203 155.449 4.80002C154.489 6.01603 153.145 6.62403 151.417 6.62403C150.617 6.62403 149.833 6.46403 149.065 6.14402C148.297 5.82403 147.545 5.47203 146.809 5.08803C146.105 4.70403 145.433 4.36803 144.793 4.08003C144.153 3.76003 143.561 3.60003 143.017 3.60003C142.281 3.60003 141.673 3.87203 141.193 4.41603C140.745 4.92803 140.441 5.66403 140.281 6.62403H136.969ZM150.666 6.62403C150.826 4.60803 151.386 3.00803 152.346 1.82403C153.306 0.608027 154.634 2.67029e-05 156.33 2.67029e-05C157.13 2.67029e-05 157.914 0.160027 158.682 0.480026C159.45 0.800026 160.186 1.15203 160.89 1.53603C161.626 1.92003 162.314 2.27203 162.954 2.59202C163.626 2.88002 164.234 3.02402 164.778 3.02402C165.514 3.02402 166.122 2.76803 166.602 2.25603C167.082 1.71203 167.386 0.976026 167.514 0.0480261H170.778C170.65 1.96803 170.106 3.55203 169.146 4.80002C168.186 6.01603 166.842 6.62403 165.114 6.62403C164.314 6.62403 163.53 6.46403 162.762 6.14402C161.994 5.82403 161.242 5.47203 160.506 5.08803C159.802 4.70403 159.13 4.36803 158.49 4.08003C157.85 3.76003 157.258 3.60003 156.714 3.60003C155.978 3.60003 155.37 3.87203 154.89 4.41603C154.442 4.92803 154.138 5.66403 153.978 6.62403H150.666ZM164.363 6.62403C164.523 4.60803 165.083 3.00803 166.043 1.82403C167.003 0.608027 168.331 2.67029e-05 170.027 2.67029e-05C170.827 2.67029e-05 171.611 0.160027 172.379 0.480026C173.147 0.800026 173.883 1.15203 174.587 1.53603C175.323 1.92003 176.011 2.27203 176.651 2.59202C177.323 2.88002 177.931 3.02402 178.475 3.02402C179.211 3.02402 179.819 2.76803 180.299 2.25603C180.779 1.71203 181.083 0.976026 181.211 0.0480261H184.475C184.347 1.96803 183.803 3.55203 182.843 4.80002C181.883 6.01603 180.539 6.62403 178.811 6.62403C178.011 6.62403 177.227 6.46403 176.459 6.14402C175.691 5.82403 174.939 5.47203 174.203 5.08803C173.499 4.70403 172.827 4.36803 172.187 4.08003C171.547 3.76003 170.955 3.60003 170.411 3.60003C169.675 3.60003 169.067 3.87203 168.587 4.41603C168.139 4.92803 167.835 5.66403 167.675 6.62403H164.363ZM178.059 6.62403C178.219 4.60803 178.779 3.00803 179.739 1.82403C180.699 0.608027 182.027 2.67029e-05 183.723 2.67029e-05C184.523 2.67029e-05 185.307 0.160027 186.075 0.480026C186.843 0.800026 187.579 1.15203 188.283 1.53603C189.019 1.92003 189.707 2.27203 190.347 2.59202C191.019 2.88002 191.627 3.02402 192.171 3.02402C192.907 3.02402 193.515 2.76803 193.995 2.25603C194.475 1.71203 194.779 0.976026 194.907 0.0480261H198.171C198.043 1.96803 197.499 3.55203 196.539 4.80002C195.579 6.01603 194.235 6.62403 192.507 6.62403C191.707 6.62403 190.923 6.46403 190.155 6.14402C189.387 5.82403 188.635 5.47203 187.899 5.08803C187.195 4.70403 186.523 4.36803 185.883 4.08003C185.243 3.76003 184.651 3.60003 184.107 3.60003C183.371 3.60003 182.763 3.87203 182.283 4.41603C181.835 4.92803 181.531 5.66403 181.371 6.62403H178.059Z" fill="url(#paint0_linear_506_336)"/>
<defs>
<linearGradient id="paint0_linear_506_336" x1="-9.50556" y1="-15.1557" x2="216.403" y2="0.335134" gradientUnits="userSpaceOnUse">
<stop stop-color="#C6F1F7"/>
<stop offset="0.364583" stop-color="#F983E9"/>
<stop offset="0.739583" stop-color="#B877FF"/>
<stop offset="1" stop-color="#C2E9CD"/>
</linearGradient>
</defs>
</svg>
